<svg version="1.2" xmlns="http://www.w3.org/2000/svg" viewBox="0 0 2016 1704" width="2016" height="1704">
	<title>movie-review-program-svg</title>
	<style>
		tspan { white-space:pre } 
		.s0 { fill: #ffffff } 
		.s1 { fill: none;stroke: #730fc3;stroke-linecap: round;stroke-linejoin: round;stroke-width: 4 } 
		.t2 { font-size: 36px;fill: #293845;font-family: "D IN  Next" } 
		.s3 { fill: #fae6d8;stroke: #e8833a;stroke-width: 2 } 
		.s4 { fill: #444444 } 
		.t5 { font-size: 18px;fill: #293845;font-family: "D IN  Next" } 
		.s6 { fill: #e3cff3 } 
		.s7 { fill: #e3cff3;stroke: #730fc3;stroke-width: 2 } 
		.s8 { fill: none;stroke: #c3cfd9;stroke-linecap: round;stroke-linejoin: round;stroke-width: 4 } 
		.s9 { fill: #c3cfd9;stroke: #c3cfd9;stroke-linecap: round;stroke-linejoin: round;stroke-width: 2 } 
		.t10 { font-size: 18px;fill: #c3cfd9;font-family: "D IN  Next" } 
		.s11 { fill: #2c88d9 } 
		.t12 { font-size: 18px;fill: #ffffff;font-family: "D IN  Next" } 
		.s13 { fill: #f2d6f6;stroke: #bd34d1;stroke-width: 2 } 
		.t14 { font-size: 27px;fill: #293845;font-family: "D IN  Next" } 
		.t15 { font-size: 60px;fill: #293845;font-family: "D IN  Next" } 
		.s16 { fill: none;stroke: #c3cfd9;stroke-linecap: round;stroke-linejoin: round;stroke-width: 2 } 
	</style>
	<g>
		<path class="s0" d="m0 0h2016v1704h-2016z"/>
		<path class="s0" d="m-377 76h2016v1704h-2016z"/>
		<g>
			<g>
				<g>
					<path fill-rule="evenodd" class="s1" d="m132 108c143.5 278.8 287 557.7 559 740 272 182.3 672.5 268.2 1073 354"/>
				</g>
			</g>
			<g>
				<g>
					<g>
						<g>
							<g>
								<g>
									<g>
									</g>
									<text id="Ed25519 curve" style="transform: matrix(1,0,0,1,848,912.5)" >
										<tspan x="0" y="0" class="t2">Ed25519 curve
</tspan>
									</text>
								</g>
							</g>
						</g>
					</g>
				</g>
			</g>
			<g>
				<g>
					<g>
						<g>
							<path class="s3" d="m165 1131h290.5v125h-290.5z"/>
						</g>
						<g>
							<g>
								<g>
									<g>
										<g id="s3442313b-8c95-4eab-9236-acb31cfadd70">
											<g>
												<path class="s4" d="m190.5 1178.3h17.3c2 0 3.7 1.6 3.7 3.7v18c0 2.1-1.7 3.8-3.8 3.8h-17.2c-2.1 0-3.8-1.7-3.8-3.8v-18c0-2.1 1.7-3.7 3.8-3.7z"/>
												<path class="s4" d="m220.9 1182.1q-0.1-0.1-0.2-0.1-0.1 0-0.2 0-0.1 0-0.2 0-0.1 0.1-0.2 0.1l-7.1 4.4v9l7.1 4.4q0.2 0.1 0.4 0.1 0.2 0 0.4-0.1 0.1-0.1 0.2-0.3 0.1-0.1 0.1-0.3v-16.5q0-0.2 0-0.2 0-0.1-0.1-0.2 0-0.1-0.1-0.2 0-0.1-0.1-0.1z"/>
											</g>
										</g>
									</g>
								</g>
							</g>
							<g>
								<g>
									<g>
										<g>
											<g>
												<g>
													<g>
													</g>
													<text id="title: Ben Hur" style="transform: matrix(1,0,0,1,239,1178.5)" >
														<tspan x="0" y="0" class="t5">title: Ben Hur
</tspan>
													</text>
												</g>
											</g>
										</g>
									</g>
									<g>
										<g>
											<g>
												<g>
													<g>
													</g>
													<text id="description: A prince..." style="transform: matrix(1,0,0,1,239,1202.5)" >
														<tspan x="0" y="0" class="t5">description: A prince...
</tspan>
													</text>
												</g>
											</g>
										</g>
									</g>
									<g>
										<g>
											<g>
												<g>
													<g>
													</g>
													<text id="rating: ★★★★★" style="transform: matrix(1,0,0,1,239,1226.5)" >
														<tspan x="0" y="0" class="t5">rating: ★★★★★
</tspan>
													</text>
												</g>
											</g>
										</g>
									</g>
								</g>
							</g>
						</g>
					</g>
					<g>
						<g>
							<g>
								<g>
									<g>
										<g>
											<g>
											</g>
											<text id="PROGRAM DERIVED ADDRESS" style="transform: matrix(1,0,0,1,166,1122.5)" >
												<tspan x="0" y="0" class="t5">PROGRAM DERIVED ADDRESS
</tspan>
											</text>
										</g>
									</g>
								</g>
							</g>
						</g>
					</g>
				</g>
			</g>
			<g>
				<g>
					<g>
						<g>
							<g>
								<g>
									<g>
										<g>
											<g>
											</g>
											<text id="ADDRESS" style="transform: matrix(1,0,0,1,473,640.5)" >
												<tspan x="0" y="0" class="t5">ADDRESS
</tspan>
											</text>
										</g>
									</g>
								</g>
							</g>
						</g>
					</g>
					<g>
						<g>
							<path class="s6" d="m453.5 646.5c-6.1 0-11-4.9-11-11 0-6.1 4.9-11 11-11 6.1 0 11 4.9 11 11 0 6.1-4.9 11-11 11z"/>
						</g>
					</g>
				</g>
			</g>
			<g>
				<g>
					<g>
						<g>
							<g>
								<g>
									<g>
										<g>
											<path class="s7" d="m227 404h246v160h-246z"/>
										</g>
									</g>
									<g>
										<g>
											<g>
												<g>
													<g>
														<g>
															<g>
															</g>
															<text id="MOVIE REVIEW PROGRAM" style="transform: matrix(1,0,0,1,243,433.5)" >
																<tspan x="0" y="0" class="t5">MOVIE REVIEW PROGRAM
</tspan>
															</text>
														</g>
													</g>
												</g>
											</g>
										</g>
									</g>
								</g>
							</g>
							<g>
								<g>
									<g>
										<g id="seac9a043-8450-426f-912b-a120a944eb02">
											<g>
												<path fill-rule="evenodd" class="s4" d="m285.6 467.6q0.3 0.2 0.5 0.4 0.3 0.3 0.4 0.6 0.1 0.3 0.1 0.6v3.6q0 0.3-0.1 0.6-0.1 0.3-0.4 0.6-0.2 0.2-0.5 0.4-0.3 0.1-0.6 0.2l-5.3 0.6q-0.1 0.4-0.3 0.8-0.1 0.4-0.3 0.8-0.2 0.4-0.3 0.8-0.2 0.4-0.4 0.7l3.3 4.2q0.2 0.3 0.3 0.6 0.1 0.3 0.1 0.6 0 0.4-0.2 0.7-0.1 0.3-0.3 0.5l-2.6 2.5q-0.2 0.3-0.5 0.4-0.3 0.1-0.6 0.2-0.3 0-0.7-0.1-0.3-0.1-0.5-0.3l-4.2-3.4q-0.4 0.2-0.8 0.4-0.4 0.2-0.8 0.4-0.4 0.1-0.8 0.3-0.4 0.1-0.8 0.2l-0.6 5.4q0 0.3-0.2 0.6-0.1 0.3-0.4 0.5-0.2 0.2-0.5 0.3-0.3 0.2-0.7 0.1h-3.6q-0.3 0.1-0.6-0.1-0.3-0.1-0.6-0.3-0.2-0.2-0.4-0.5-0.1-0.3-0.1-0.6l-0.6-5.3q-0.4-0.2-0.8-0.3-0.5-0.2-0.9-0.3-0.4-0.2-0.7-0.4-0.4-0.2-0.8-0.4l-4.2 3.4q-0.2 0.2-0.6 0.3-0.3 0.1-0.6 0.1-0.3-0.1-0.6-0.2-0.3-0.1-0.6-0.4l-2.5-2.5q-0.2-0.2-0.4-0.5-0.1-0.3-0.1-0.7 0-0.3 0.1-0.6 0.1-0.3 0.3-0.6l3.3-4.1q-0.2-0.4-0.4-0.8-0.2-0.4-0.3-0.8-0.2-0.4-0.4-0.8-0.1-0.4-0.2-0.8l-5.3-0.6q-0.4-0.1-0.6-0.2-0.3-0.2-0.6-0.4-0.2-0.3-0.3-0.6-0.1-0.3-0.1-0.6v-3.6q0-0.3 0.1-0.6 0.1-0.3 0.3-0.6 0.3-0.2 0.6-0.4 0.2-0.1 0.6-0.2l5.3-0.6q0.1-0.4 0.2-0.8 0.2-0.4 0.4-0.8 0.1-0.4 0.3-0.8 0.2-0.4 0.4-0.7l-3.3-4.2q-0.2-0.3-0.4-0.6-0.1-0.3 0-0.6 0-0.4 0.1-0.7 0.2-0.3 0.4-0.5l2.5-2.5q0.3-0.3 0.6-0.4 0.3-0.1 0.6-0.2 0.3 0 0.6 0.1 0.4 0.1 0.6 0.3l4.2 3.4q0.4-0.2 0.8-0.4 0.3-0.2 0.7-0.4 0.4-0.1 0.9-0.3 0.4-0.1 0.8-0.2l0.6-5.4q0-0.3 0.1-0.6 0.2-0.3 0.4-0.5 0.3-0.2 0.6-0.3 0.3-0.2 0.6-0.2h3.6q0.4 0 0.7 0.2 0.3 0.1 0.5 0.3 0.3 0.2 0.4 0.5 0.2 0.3 0.2 0.6l0.6 5.3q0.4 0.2 0.8 0.3 0.4 0.2 0.8 0.3 0.4 0.2 0.8 0.4 0.4 0.2 0.8 0.4l4.2-3.4q0.2-0.2 0.5-0.3 0.3-0.1 0.7-0.1 0.3 0.1 0.6 0.2 0.3 0.1 0.5 0.4l2.6 2.5q0.2 0.2 0.3 0.5 0.2 0.3 0.2 0.7 0 0.3-0.1 0.6-0.1 0.3-0.3 0.6l-3.3 4.1q0.2 0.4 0.4 0.8 0.1 0.4 0.3 0.8 0.2 0.4 0.3 0.8 0.2 0.4 0.3 0.8l5.3 0.6q0.3 0.1 0.6 0.2zm-17.7 10q1.3-0.5 2.3-1.5 1-1.1 1.5-2.4 0.6-1.3 0.6-2.7c0-2.9-1.8-5.5-4.4-6.6-2.7-1.1-5.8-0.5-7.8 1.5-2.1 2.1-2.7 5.2-1.6 7.8 1.1 2.7 3.7 4.4 6.6 4.4q1.5 0 2.8-0.5z"/>
											</g>
										</g>
									</g>
								</g>
							</g>
							<g>
								<g>
									<g>
										<g>
											<g>
												<g>
													<g>
													</g>
													<text id="Adds movie " style="transform: matrix(1,0,0,1,301,467.5)" >
														<tspan x="0" y="0" class="t5">Adds movie 
</tspan>
													</text>
												</g>
											</g>
										</g>
									</g>
									<g>
										<g>
											<g>
												<g>
													<g>
													</g>
													<text id="reviews" style="transform: matrix(1,0,0,1,301,491.5)" >
														<tspan x="0" y="0" class="t5">reviews
</tspan>
													</text>
												</g>
											</g>
										</g>
									</g>
								</g>
							</g>
						</g>
					</g>
				</g>
			</g>
			<g>
				<g>
					<g>
						<g>
							<g>
								<g>
									<g>
										<g>
											<g>
											</g>
											<text id="ADDRESS" style="transform: matrix(1,0,0,1,301,390.5)" >
												<tspan x="0" y="0" class="t5">ADDRESS
</tspan>
											</text>
										</g>
									</g>
								</g>
							</g>
						</g>
					</g>
					<g>
						<g>
							<path class="s7" d="m281.5 396.5c-6.1 0-11-4.9-11-11 0-6.1 4.9-11 11-11 6.1 0 11 4.9 11 11 0 6.1-4.9 11-11 11z"/>
						</g>
					</g>
				</g>
			</g>
			<g>
				<g>
					<path fill-rule="evenodd" class="s8" d="m542 979v56c0 8.3-6.7 15-15 15h-96m111-278v179"/>
					<path class="s9" d="m434.1 1055.5l-7.1-5.5 7.1-5.5z"/>
					<text id="seed" style="transform: matrix(1,0,0,1,542,971)" >
						<tspan x="-21.5" y="0" class="t10">seed
</tspan>
					</text>
				</g>
			</g>
			<g>
				<g>
					<path fill-rule="evenodd" class="s8" d="m205 772v109m0 28v105"/>
					<path class="s9" d="m210.5 1010.9l-5.5 7.1-5.5-7.1z"/>
					<text id="seed" style="transform: matrix(1,0,0,1,205,901)" >
						<tspan x="-21.5" y="0" class="t10">seed
</tspan>
					</text>
				</g>
			</g>
			<g>
				<g>
					<g>
						<g>
							<path class="s3" d="m537 1394h290.5v125h-290.5z"/>
						</g>
						<g>
							<g>
								<g>
									<g>
										<g id="s5a453fe7-4c46-445f-9aff-682ad58b1936">
											<g>
												<path class="s4" d="m548.5 1443.3h17.3c2 0 3.7 1.6 3.7 3.7v18c0 2.1-1.7 3.8-3.8 3.8h-17.2c-2.1 0-3.8-1.7-3.8-3.8v-18c0-2.1 1.7-3.7 3.8-3.7z"/>
												<path class="s4" d="m578.9 1447.1q-0.1-0.1-0.2-0.1-0.1 0-0.2 0-0.1 0-0.2 0-0.1 0.1-0.2 0.1l-7.1 4.4v9l7.1 4.4q0.2 0.1 0.4 0.1 0.2 0 0.4-0.1 0.1-0.1 0.2-0.3 0.1-0.1 0.2-0.3v-16.5q-0.1-0.2-0.1-0.2 0-0.1-0.1-0.2 0-0.1-0.1-0.2 0-0.1-0.1-0.1z"/>
											</g>
										</g>
									</g>
								</g>
							</g>
							<g>
								<g>
									<g>
										<g>
											<g>
												<g>
													<g>
													</g>
													<text id="title: Titanic" style="transform: matrix(1,0,0,1,611,1441.5)" >
														<tspan x="0" y="0" class="t5">title: Titanic
</tspan>
													</text>
												</g>
											</g>
										</g>
									</g>
									<g>
										<g>
											<g>
												<g>
													<g>
													</g>
													<text id="description: A romance on...." style="transform: matrix(1,0,0,1,611,1465.5)" >
														<tspan x="0" y="0" class="t5">description: A romance on....
</tspan>
													</text>
												</g>
											</g>
										</g>
									</g>
									<g>
										<g>
											<g>
												<g>
													<g>
													</g>
													<text id="rating: ★★★★" style="transform: matrix(1,0,0,1,611,1489.5)" >
														<tspan x="0" y="0" class="t5">rating: ★★★★
</tspan>
													</text>
												</g>
											</g>
										</g>
									</g>
								</g>
							</g>
						</g>
					</g>
					<g>
						<g>
							<g>
								<g>
									<g>
										<g>
											<g>
											</g>
											<text id="PROGRAM DERIVED ADDRESS" style="transform: matrix(1,0,0,1,538,1385.5)" >
												<tspan x="0" y="0" class="t5">PROGRAM DERIVED ADDRESS
</tspan>
											</text>
										</g>
									</g>
								</g>
							</g>
						</g>
					</g>
				</g>
			</g>
			<g>
				<g>
					<path fill-rule="evenodd" class="s8" d="m611 772v247m0 28v242"/>
					<path class="s9" d="m616.5 1285.9l-5.5 7.1-5.5-7.1z"/>
					<text id="seed" style="transform: matrix(1,0,0,1,611,1039)" >
						<tspan x="-21.5" y="0" class="t10">seed
</tspan>
					</text>
				</g>
			</g>
			<g>
				<g>
					<g>
						<g>
							<g>
								<g>
									<g>
									</g>
									<text id="ADDRESS" style="transform: matrix(1,0,0,1,473,640.5)" >
										<tspan x="0" y="0" class="t5">ADDRESS
</tspan>
									</text>
								</g>
							</g>
						</g>
					</g>
				</g>
			</g>
			<g>
				<g>
					<path class="s7" d="m453.5 646.5c-6.1 0-11-4.9-11-11 0-6.1 4.9-11 11-11 6.1 0 11 4.9 11 11 0 6.1-4.9 11-11 11z"/>
				</g>
			</g>
			<g>
				<g>
					<g>
						<path class="s0" d="m75 687h247c1.7 0 3 1.3 3 3v71c0 1.7-1.3 3-3 3h-247c-1.7 0-3-1.3-3-3v-71c0-1.7 1.3-3 3-3z"/>
						<g>
							<path class="s11" d="m75 687h247c1.7 0 3 1.3 3 3v71c0 1.7-1.3 3-3 3h-247c-1.7 0-3-1.3-3-3v-71c0-1.7 1.3-3 3-3z"/>
							<g>
								<g>
									<g>
										<g>
											<g>
												<g>
												</g>
												<text id="“Ben Hur”" style="transform: matrix(1,0,0,1,160.286,732)" >
													<tspan x="0" y="0" class="t12">“Ben Hur”
</tspan>
												</text>
											</g>
										</g>
									</g>
								</g>
							</g>
						</g>
					</g>
					<g>
						<g>
							<g>
								<g>
									<g>
										<g>
											<g>
											</g>
											<text id="STRING" style="transform: matrix(1,0,0,1,72,677.5)" >
												<tspan x="0" y="0" class="t5">STRING
</tspan>
											</text>
										</g>
									</g>
								</g>
							</g>
						</g>
					</g>
				</g>
			</g>
			<g>
				<g>
					<path class="s13" d="m1398 1140h240v104.5h-240z"/>
				</g>
				<g>
					<g>
						<g>
							<g>
								<g>
									<g>
										<g>
											<g>
											</g>
											<text id="◎27 SOL" style="transform: matrix(1,0,0,1,1463,1217.5)" >
												<tspan x="0" y="0" class="t14">◎27 SOL
</tspan>
											</text>
										</g>
									</g>
								</g>
							</g>
						</g>
					</g>
					<g>
						<g>
							<g>
								<g>
									<g>
										<g>
											<g>
											</g>
											<text id="Bob’s wallet" style="transform: matrix(1,0,0,1,1415,1174.5)" >
												<tspan x="0" y="0" class="t5">Bob’s wallet
</tspan>
											</text>
										</g>
									</g>
								</g>
							</g>
						</g>
					</g>
					<g>
						<g>
							<g>
								<g id="sa41eeca1-3af1-47c2-be94-b0db8200b80f">
									<g>
										<path class="s4" d="m1432.5 1211.8h-9c-5.4 0-9.8 4.3-9.8 9.7l0.1 1.5c0 0.3 0.2 0.6 0.5 0.7 0.2 0.1 4.9 1.6 13.7 1.6 8.8 0 13.5-1.5 13.7-1.6 0.3-0.1 0.6-0.4 0.6-0.7v-1.5c0-5.4-4.4-9.7-9.8-9.7z"/>
										<path class="s4" d="m1428 1208.8c4.6 0 8.3-5.3 8.3-9.8-0.1-4.5-3.8-8.2-8.3-8.2-4.5 0-8.3 3.7-8.3 8.2 0.1 4.5 3.7 9.8 8.3 9.8z"/>
									</g>
								</g>
							</g>
						</g>
					</g>
				</g>
			</g>
			<g>
				<g>
					<g>
						<g>
							<g>
								<g>
									<g>
										<g>
											<g>
											</g>
											<text id="ADDRESS" style="transform: matrix(1,0,0,1,1429,1122.5)" >
												<tspan x="0" y="0" class="t5">ADDRESS
</tspan>
											</text>
										</g>
									</g>
								</g>
							</g>
						</g>
					</g>
					<g>
						<g>
							<path class="s7" d="m1409.5 1128.5c-6.1 0-11-4.9-11-11 0-6.1 4.9-11 11-11 6.1 0 11 4.9 11 11 0 6.1-4.9 11-11 11z"/>
						</g>
					</g>
				</g>
			</g>
			<g>
				<path class="s0" d="m831 1104h247c1.7 0 3 1.3 3 3v81c0 1.7-1.3 3-3 3h-247c-1.7 0-3-1.3-3-3v-81c0-1.7 1.3-3 3-3z"/>
				<g>
					<path class="s11" d="m831 1104h247c1.7 0 3 1.3 3 3v81c0 1.7-1.3 3-3 3h-247c-1.7 0-3-1.3-3-3v-81c0-1.7 1.3-3 3-3z"/>
					<g>
						<g>
							<g>
								<g>
									<g>
										<g>
										</g>
										<text id="“Titanic”" style="transform: matrix(1,0,0,1,921.848,1154)" >
											<tspan x="0" y="0" class="t12">“Titanic”
</tspan>
										</text>
									</g>
								</g>
							</g>
						</g>
					</g>
				</g>
			</g>
			<g>
				<g>
					<g>
						<g>
							<g>
								<g>
									<g>
									</g>
									<text id="STRING" style="transform: matrix(1,0,0,1,828,1098.5)" >
										<tspan x="0" y="0" class="t5">STRING
</tspan>
									</text>
								</g>
							</g>
						</g>
					</g>
				</g>
			</g>
			<g>
				<g>
					<g>
						<g>
							<path class="s3" d="m1136 1394h290.5v125h-290.5z"/>
						</g>
						<g>
							<g>
								<g>
									<g>
										<g id="s68fdcc21-0766-4a91-b0cc-983330cc8aaf">
											<g>
												<path class="s4" d="m1153.5 1437.3h17.3c2 0 3.7 1.6 3.7 3.7v18c0 2.1-1.7 3.8-3.8 3.8h-17.2c-2.1 0-3.8-1.7-3.8-3.8v-18c0-2.1 1.7-3.7 3.8-3.7z"/>
												<path class="s4" d="m1183.9 1441.1q-0.1-0.1-0.2-0.1-0.1 0-0.2 0-0.1 0-0.2 0-0.1 0.1-0.2 0.1l-7.1 4.4v9l7.1 4.4q0.2 0.1 0.4 0.1 0.2 0 0.4-0.1 0.1-0.1 0.2-0.3 0.1-0.1 0.1-0.3v-16.5q0-0.2 0-0.2 0-0.1-0.1-0.2 0-0.1-0.1-0.2 0-0.1-0.1-0.1z"/>
											</g>
										</g>
									</g>
								</g>
							</g>
							<g>
								<g>
									<g>
										<g>
											<g>
												<g>
													<g>
													</g>
													<text id="title: Titanic" style="transform: matrix(1,0,0,1,1210,1441.5)" >
														<tspan x="0" y="0" class="t5">title: Titanic
</tspan>
													</text>
												</g>
											</g>
										</g>
									</g>
									<g>
										<g>
											<g>
												<g>
													<g>
													</g>
													<text id="description: The largest ...." style="transform: matrix(1,0,0,1,1210,1465.5)" >
														<tspan x="0" y="0" class="t5">description: The largest ....
</tspan>
													</text>
												</g>
											</g>
										</g>
									</g>
									<g>
										<g>
											<g>
												<g>
													<g>
													</g>
													<text id="rating: ★★★★★" style="transform: matrix(1,0,0,1,1210,1489.5)" >
														<tspan x="0" y="0" class="t5">rating: ★★★★★
</tspan>
													</text>
												</g>
											</g>
										</g>
									</g>
								</g>
							</g>
						</g>
					</g>
					<g>
						<g>
							<g>
								<g>
									<g>
										<g>
											<g>
											</g>
											<text id="PROGRAM DERIVED ADDRESS" style="transform: matrix(1,0,0,1,1137,1385.5)" >
												<tspan x="0" y="0" class="t5">PROGRAM DERIVED ADDRESS
</tspan>
											</text>
										</g>
									</g>
								</g>
							</g>
						</g>
					</g>
				</g>
			</g>
			<g>
				<g>
					<path fill-rule="evenodd" class="s8" d="m1004 1199v105q0 0.5 0 1m42.5 14h106.5"/>
					<path class="s9" d="m1149.9 1313.5l7.1 5.5-7.1 5.5z"/>
					<text id="seed" style="transform: matrix(1,0,0,1,1024,1325)" >
						<tspan x="-21.5" y="0" class="t10">seed
</tspan>
					</text>
				</g>
			</g>
			<g>
				<g>
					<path fill-rule="evenodd" class="s8" d="m1253.1 1206q-0.1 0.6-0.1 1.3v81.7m130-96.8h-89.5"/>
					<path class="s9" d="m1258.5 1285.9l-5.5 7.1-5.5-7.1z"/>
					<text id="seed" style="transform: matrix(1,0,0,1,1271,1198)" >
						<tspan x="-21.5" y="0" class="t10">seed
</tspan>
					</text>
				</g>
			</g>
			<g>
				<g>
					<g>
						<g>
							<g>
								<g>
									<g>
									</g>
									<text id="Bob gives Titanic 4 stars " style="transform: matrix(1,0,0,1,1136,1552.5)" >
										<tspan x="0" y="0" class="t5">Bob gives Titanic 4 stars 
</tspan>
									</text>
								</g>
							</g>
						</g>
					</g>
				</g>
			</g>
			<g>
				<g>
					<g>
						<g>
							<g>
								<g>
									<g>
									</g>
									<text id="Alice gives Titanic 4 stars " style="transform: matrix(1,0,0,1,537,1552.5)" >
										<tspan x="0" y="0" class="t5">Alice gives Titanic 4 stars 
</tspan>
									</text>
								</g>
							</g>
						</g>
					</g>
				</g>
			</g>
			<g>
				<g>
					<g>
						<g>
							<g>
								<g>
									<g>
									</g>
									<text id="Alice gives Ben Hur 5 stars " style="transform: matrix(1,0,0,1,160,1286.5)" >
										<tspan x="0" y="0" class="t5">Alice gives Ben Hur 5 stars 
</tspan>
									</text>
								</g>
							</g>
						</g>
					</g>
				</g>
			</g>
			<g>
				<g>
					<g>
						<g>
							<g>
								<g>
									<g>
									</g>
									<text id="Bob hasn’t seen Ben Hur " style="transform: matrix(1,0,0,1,1608,1477.5)" >
										<tspan x="0" y="0" class="t5">Bob hasn’t seen Ben Hur 
</tspan>
									</text>
								</g>
							</g>
						</g>
					</g>
				</g>
			</g>
			<g>
				<g>
					<g>
						<g>
							<g>
								<g>
									<g>
									</g>
									<text id="Movie Review Program" style="transform: matrix(1,0,0,1,1311.042,120)" >
										<tspan x="0" y="0" class="t15">Movie Review Program
</tspan>
									</text>
								</g>
							</g>
						</g>
					</g>
				</g>
			</g>
			<g>
				<g>
					<path fill-rule="evenodd" class="s8" d="m932 1199v103m-28.5 17h-92.5"/>
					<path class="s9" d="m814.1 1324.5l-7.1-5.5 7.1-5.5z"/>
					<text id="seed" style="transform: matrix(1,0,0,1,926,1322)" >
						<tspan x="-21.5" y="0" class="t10">seed
</tspan>
					</text>
				</g>
			</g>
			<g>
				<g>
					<path fill-rule="evenodd" class="s8" d="m372 572v349m0 28v65"/>
					<path class="s9" d="m377.5 1010.9l-5.5 7.1-5.5-7.1z"/>
					<text id="programId" style="transform: matrix(1,0,0,1,372,941)" >
						<tspan x="-46.8" y="0" class="t10">programId
</tspan>
					</text>
				</g>
			</g>
			<g>
				<g>
					<path class="s16" d="m175.2 1025.7h243.6c1.8 0 3.2 1.4 3.2 3.2v32.2c0 1.8-1.4 3.2-3.2 3.2h-243.6c-1.8 0-3.2-1.4-3.2-3.2v-32.2c0-1.8 1.4-3.2 3.2-3.2z"/>
					<g>
						<g>
							<g>
								<g>
									<g>
										<g>
										</g>
										<text id="findProgramAddressSync()" style="transform: matrix(1,0,0,1,179.46,1051.5)" >
											<tspan x="0" y="0" class="t5">findProgramAddress</tspan><tspan  y="0" class="t5">S</tspan><tspan  y="0" class="t5">y</tspan><tspan  y="0" class="t5">n</tspan><tspan  y="0" class="t5">c</tspan><tspan  y="0" class="t5">()
</tspan>
										</text>
									</g>
								</g>
							</g>
						</g>
					</g>
				</g>
			</g>
			<g>
				<g>
					<path class="s8" d="m294 1070v22"/>
					<path class="s9" d="m299.5 1088.9l-5.5 7.1-5.5-7.1z"/>
				</g>
			</g>
			<g>
				<g>
					<path fill-rule="evenodd" class="s8" d="m481 484h225c8.3 0 15 6.7 15 15v259m0 28v503"/>
					<path class="s9" d="m726.5 1285.9l-5.5 7.1-5.5-7.1z"/>
					<text id="programId" style="transform: matrix(1,0,0,1,721,778)" >
						<tspan x="-46.8" y="0" class="t10">programId
</tspan>
					</text>
				</g>
			</g>
			<g>
				<g>
					<path class="s16" d="m557.2 1299.9h240.6c1.8 0 3.2 1.4 3.2 3.2v31.8c0 1.8-1.4 3.2-3.2 3.2h-240.6c-1.8 0-3.2-1.4-3.2-3.2v-31.8c0-1.8 1.4-3.2 3.2-3.2z"/>
					<g>
						<g>
							<g>
								<g>
									<g>
										<g>
										</g>
										<text id="findProgramAddressSync()" style="transform: matrix(1,0,0,1,559.46,1324.5)" >
											<tspan x="0" y="0" class="t5">findProgramAddress</tspan><tspan  y="0" class="t5">S</tspan><tspan  y="0" class="t5">y</tspan><tspan  y="0" class="t5">n</tspan><tspan  y="0" class="t5">c</tspan><tspan  y="0" class="t5">()
</tspan>
										</text>
									</g>
								</g>
							</g>
						</g>
					</g>
				</g>
			</g>
			<g>
				<g>
					<g>
						<g>
							<path class="s13" d="m442.5 659.5h240v104.5h-240z"/>
						</g>
						<g>
							<g>
								<g>
									<g>
										<g>
											<g>
												<g>
													<g>
													</g>
													<text id="◎15 SOL" style="transform: matrix(1,0,0,1,509,736.5)" >
														<tspan x="0" y="0" class="t14">◎15 SOL
</tspan>
													</text>
												</g>
											</g>
										</g>
									</g>
								</g>
							</g>
						</g>
					</g>
					<g>
						<g>
							<g>
								<g>
									<g>
										<g>
											<g>
											</g>
											<text id="Alice’s wallet" style="transform: matrix(1,0,0,1,460,694.5)" >
												<tspan x="0" y="0" class="t5">Alice’s wallet
</tspan>
											</text>
										</g>
									</g>
								</g>
							</g>
						</g>
					</g>
					<g>
						<g>
							<g>
								<g id="sa731679a-36bb-4422-b0a9-77fa86fb24bc">
									<g>
										<path class="s4" d="m477 731.3h-9c-5.4 0-9.8 4.3-9.8 9.7l0.1 1.5c0 0.3 0.2 0.6 0.5 0.7 0.2 0.1 4.9 1.6 13.7 1.6 8.8 0 13.5-1.5 13.7-1.6 0.3-0.1 0.6-0.4 0.6-0.7v-1.5c0-5.4-4.4-9.7-9.8-9.7z"/>
										<path class="s4" d="m472.5 728.3c4.6 0 8.3-5.3 8.3-9.8-0.1-4.5-3.8-8.2-8.3-8.2-4.5 0-8.3 3.7-8.3 8.2 0.1 4.5 3.7 9.8 8.3 9.8z"/>
									</g>
								</g>
							</g>
						</g>
					</g>
				</g>
			</g>
			<g>
				<g>
					<path class="s8" d="m672 1345v10"/>
					<path class="s9" d="m677.5 1351.9l-5.5 7.1-5.5-7.1z"/>
				</g>
			</g>
			<g>
				<g>
					<path class="s16" d="m1166.2 1299.5h245.6c1.7 0 3.2 1.5 3.2 3.3v32.4c0 1.8-1.5 3.3-3.2 3.3h-245.6c-1.7 0-3.2-1.5-3.2-3.3v-32.4c0-1.8 1.5-3.3 3.2-3.3z"/>
					<g>
						<g>
							<g>
								<g>
									<g>
										<g>
										</g>
										<text id="findProgramAddressSync()" style="transform: matrix(1,0,0,1,1171.46,1325.5)" >
											<tspan x="0" y="0" class="t5">findProgramAddress</tspan><tspan  y="0" class="t5">S</tspan><tspan  y="0" class="t5">y</tspan><tspan  y="0" class="t5">n</tspan><tspan  y="0" class="t5">c</tspan><tspan  y="0" class="t5">()
</tspan>
										</text>
									</g>
								</g>
							</g>
						</g>
					</g>
				</g>
			</g>
			<g>
				<g>
					<path fill-rule="evenodd" class="s8" d="m468 447v1c0 0.6 0.4 1 1 1h726c8.3 0 15 6.7 15 15v24m0 28v773"/>
					<path class="s9" d="m1215.5 1285.9l-5.5 7.1-5.5-7.1z"/>
					<text id="programId" style="transform: matrix(1,0,0,1,1210,508)" >
						<tspan x="-46.8" y="0" class="t10">programId
</tspan>
					</text>
				</g>
			</g>
			<g>
				<g>
					<path class="s8" d="m1281.5 1349.5v8"/>
					<path class="s9" d="m1287 1354.4l-5.5 7.1-5.5-7.1z"/>
				</g>
			</g>
		</g>
		<g>
		</g>
	</g>
</svg>