<svg version="1.2" xmlns="http://www.w3.org/2000/svg" viewBox="0 0 2016 1704" width="2016" height="1704">
	<title>pdas-per-user-state-svg</title>
	<style>
		tspan { white-space:pre } 
		.s0 { fill: #ffffff } 
		.s1 { fill: none;stroke: #730fc3;stroke-linecap: round;stroke-linejoin: round;stroke-width: 4 } 
		.t2 { font-size: 36px;fill: #293845;font-family: "D IN  Next" } 
		.s3 { fill: #fae6d8;stroke: #e8833a;stroke-width: 2 } 
		.s4 { fill: #444444 } 
		.t5 { font-size: 18px;fill: #293845;font-family: "D IN  Next" } 
		.s6 { fill: #e3cff3 } 
		.s7 { fill: #e3cff3;stroke: #730fc3;stroke-width: 2 } 
		.s8 { fill: #f2d6f6;stroke: #bd34d1;stroke-width: 2 } 
		.t9 { font-size: 27px;fill: #293845;font-family: "D IN  Next" } 
		.s10 { fill: none;stroke: #c3cfd9;stroke-linecap: round;stroke-linejoin: round;stroke-width: 4 } 
		.s11 { fill: #c3cfd9;stroke: #c3cfd9;stroke-linecap: round;stroke-linejoin: round;stroke-width: 2 } 
		.t12 { font-size: 18px;fill: #c3cfd9;font-family: "D IN  Next" } 
		.t13 { font-size: 60px;fill: #293845;font-family: "D IN  Next" } 
		.s14 { fill: none;stroke: #c3cfd9;stroke-linecap: round;stroke-linejoin: round;stroke-width: 2 } 
	</style>
	<g>
		<path class="s0" d="m0 0h2016v1704h-2016z"/>
		<path class="s0" d="m0 0h2016v1704h-2016z"/>
		<g>
			<g>
				<g>
					<path fill-rule="evenodd" class="s1" d="m132 108c143.5 278.8 287 557.7 559 740 272 182.3 672.5 268.2 1073 354"/>
				</g>
			</g>
			<g>
				<g>
					<g>
						<g>
							<g>
								<g>
									<g>
									</g>
									<text id="Ed25519 curve" style="transform: matrix(1,0,0,1,883,923.5)" >
										<tspan x="0" y="0" class="t2">Ed25519 curve
</tspan>
									</text>
								</g>
							</g>
						</g>
					</g>
				</g>
			</g>
			<g>
				<g>
					<g>
						<g>
							<path class="s3" d="m165 1131h290.5v125h-290.5z"/>
						</g>
						<g>
							<g>
								<g>
									<g>
										<g id="s95c1b964-1202-477e-b2c1-e413fa3075e4">
											<g>
												<path fill-rule="evenodd" class="s4" d="m219.8 1179l-0.1 24c0 2.1-1.6 3.8-3.7 3.8h-24c-2.1 0-3.8-1.7-3.8-3.8v-24c0-2.1 1.7-3.8 3.8-3.8h24c2.1 0 3.7 1.7 3.7 3.8zm-3 12c0-0.4-0.3-0.8-0.7-0.8l-5.3 0.1c-0.2-0.1-0.5 0.1-0.6 0.4l-3.1 6.1-6.8-13.6c-0.2-0.3-0.4-0.5-0.7-0.4-0.3 0-0.6 0.1-0.7 0.4l-2.8 7-4 0.1c-0.4 0-0.8 0.3-0.8 0.7 0 0.4 0.4 0.8 0.8 0.8h4.5c0.3 0 0.6-0.2 0.7-0.5l2.4-6 6.7 13.5q0.1 0.3 0.4 0.4c0.3 0.2 0.8 0 1-0.4l3.5-7h4.8c0.4 0 0.7-0.4 0.7-0.8z"/>
											</g>
										</g>
									</g>
								</g>
							</g>
							<g>
								<g>
									<g>
										<g>
											<g>
												<g>
													<g>
													</g>
													<text id="level: 7" style="transform: matrix(1,0,0,1,239,1178.5)" >
														<tspan x="0" y="0" class="t5">level: 7
</tspan>
													</text>
												</g>
											</g>
										</g>
									</g>
									<g>
										<g>
											<g>
												<g>
													<g>
													</g>
													<text id="victories: 8" style="transform: matrix(1,0,0,1,239,1202.5)" >
														<tspan x="0" y="0" class="t5">victories: 8
</tspan>
													</text>
												</g>
											</g>
										</g>
									</g>
									<g>
										<g>
											<g>
												<g>
													<g>
													</g>
													<text id="losses: 2" style="transform: matrix(1,0,0,1,239,1226.5)" >
														<tspan x="0" y="0" class="t5">losses: 2
</tspan>
													</text>
												</g>
											</g>
										</g>
									</g>
								</g>
							</g>
						</g>
					</g>
					<g>
						<g>
							<g>
								<g>
									<g>
										<g>
											<g>
											</g>
											<text id="PROGRAM DERIVED ADDRESS" style="transform: matrix(1,0,0,1,166,1122.5)" >
												<tspan x="0" y="0" class="t5">PROGRAM DERIVED ADDRESS
</tspan>
											</text>
										</g>
									</g>
								</g>
							</g>
						</g>
					</g>
				</g>
			</g>
			<g>
				<g>
					<g>
						<g>
							<g>
								<g>
									<g>
										<g>
											<g>
											</g>
											<text id="ADDRESS" style="transform: matrix(1,0,0,1,473,640.5)" >
												<tspan x="0" y="0" class="t5">ADDRESS
</tspan>
											</text>
										</g>
									</g>
								</g>
							</g>
						</g>
					</g>
					<g>
						<g>
							<path class="s6" d="m453.5 646.5c-6.1 0-11-4.9-11-11 0-6.1 4.9-11 11-11 6.1 0 11 4.9 11 11 0 6.1-4.9 11-11 11z"/>
						</g>
					</g>
				</g>
			</g>
			<g>
				<g>
					<g>
						<g>
							<g>
								<g>
									<g>
										<g>
											<path class="s7" d="m227 404h246v160h-246z"/>
										</g>
									</g>
									<g>
										<g>
											<g>
												<g>
													<g>
														<g>
															<g>
															</g>
															<text id="SPACE BATTLE PROGRAM" style="transform: matrix(1,0,0,1,243,433.5)" >
																<tspan x="0" y="0" class="t5">SPACE BATTLE PROGRAM
</tspan>
															</text>
														</g>
													</g>
												</g>
											</g>
										</g>
									</g>
								</g>
							</g>
							<g>
								<g>
									<g>
										<g id="s7bb6f870-2f7e-4af9-ac3f-ef29591215c6">
											<g>
												<path fill-rule="evenodd" class="s4" d="m285.6 467.6q0.3 0.2 0.5 0.4 0.3 0.3 0.4 0.6 0.1 0.3 0.1 0.6v3.6q0 0.3-0.1 0.6-0.1 0.3-0.4 0.6-0.2 0.2-0.5 0.4-0.3 0.1-0.6 0.2l-5.3 0.6q-0.1 0.4-0.3 0.8-0.1 0.4-0.3 0.8-0.2 0.4-0.3 0.8-0.2 0.4-0.4 0.7l3.3 4.2q0.2 0.3 0.3 0.6 0.1 0.3 0.1 0.6 0 0.4-0.2 0.7-0.1 0.3-0.3 0.5l-2.6 2.5q-0.2 0.3-0.5 0.4-0.3 0.1-0.6 0.2-0.3 0-0.7-0.1-0.3-0.1-0.5-0.3l-4.2-3.4q-0.4 0.2-0.8 0.4-0.4 0.2-0.8 0.4-0.4 0.1-0.8 0.3-0.4 0.1-0.8 0.2l-0.6 5.4q0 0.3-0.2 0.6-0.1 0.3-0.4 0.5-0.2 0.2-0.5 0.3-0.3 0.2-0.7 0.1h-3.6q-0.3 0.1-0.6-0.1-0.3-0.1-0.6-0.3-0.2-0.2-0.4-0.5-0.1-0.3-0.1-0.6l-0.6-5.3q-0.4-0.2-0.8-0.3-0.5-0.2-0.9-0.3-0.4-0.2-0.7-0.4-0.4-0.2-0.8-0.4l-4.2 3.4q-0.2 0.2-0.6 0.3-0.3 0.1-0.6 0.1-0.3-0.1-0.6-0.2-0.3-0.1-0.6-0.4l-2.5-2.5q-0.2-0.2-0.4-0.5-0.1-0.3-0.1-0.7 0-0.3 0.1-0.6 0.1-0.3 0.3-0.6l3.3-4.1q-0.2-0.4-0.4-0.8-0.2-0.4-0.3-0.8-0.2-0.4-0.4-0.8-0.1-0.4-0.2-0.8l-5.3-0.6q-0.4-0.1-0.6-0.2-0.3-0.2-0.6-0.4-0.2-0.3-0.3-0.6-0.1-0.3-0.1-0.6v-3.6q0-0.3 0.1-0.6 0.1-0.3 0.3-0.6 0.3-0.2 0.6-0.4 0.2-0.1 0.6-0.2l5.3-0.6q0.1-0.4 0.2-0.8 0.2-0.4 0.4-0.8 0.1-0.4 0.3-0.8 0.2-0.4 0.4-0.7l-3.3-4.2q-0.2-0.3-0.4-0.6-0.1-0.3 0-0.6 0-0.4 0.1-0.7 0.2-0.3 0.4-0.5l2.5-2.5q0.3-0.3 0.6-0.4 0.3-0.1 0.6-0.2 0.3 0 0.6 0.1 0.4 0.1 0.6 0.3l4.2 3.4q0.4-0.2 0.8-0.4 0.3-0.2 0.7-0.4 0.4-0.1 0.9-0.3 0.4-0.1 0.8-0.2l0.6-5.4q0-0.3 0.1-0.6 0.2-0.3 0.4-0.5 0.3-0.2 0.6-0.3 0.3-0.2 0.6-0.2h3.6q0.4 0 0.7 0.2 0.3 0.1 0.5 0.3 0.3 0.2 0.4 0.5 0.2 0.3 0.2 0.6l0.6 5.3q0.4 0.2 0.8 0.3 0.4 0.2 0.8 0.3 0.4 0.2 0.8 0.4 0.4 0.2 0.8 0.4l4.2-3.4q0.2-0.2 0.5-0.3 0.3-0.1 0.7-0.1 0.3 0.1 0.6 0.2 0.3 0.1 0.5 0.4l2.6 2.5q0.2 0.2 0.3 0.5 0.2 0.3 0.2 0.7 0 0.3-0.1 0.6-0.1 0.3-0.3 0.6l-3.3 4.1q0.2 0.4 0.4 0.8 0.1 0.4 0.3 0.8 0.2 0.4 0.3 0.8 0.2 0.4 0.3 0.8l5.3 0.6q0.3 0.1 0.6 0.2zm-17.7 10q1.3-0.5 2.3-1.5 1-1.1 1.5-2.4 0.6-1.3 0.6-2.7c0-2.9-1.8-5.5-4.4-6.6-2.7-1.1-5.8-0.5-7.8 1.5-2.1 2.1-2.7 5.2-1.6 7.8 1.1 2.7 3.7 4.4 6.6 4.4q1.5 0 2.8-0.5z"/>
											</g>
										</g>
									</g>
								</g>
							</g>
							<g>
								<g>
									<g>
										<g>
											<g>
												<g>
													<g>
													</g>
													<text id="Move" style="transform: matrix(1,0,0,1,301,467.5)" >
														<tspan x="0" y="0" class="t5">Move
</tspan>
													</text>
												</g>
											</g>
										</g>
									</g>
									<g>
										<g>
											<g>
												<g>
													<g>
													</g>
													<text id="Engage" style="transform: matrix(1,0,0,1,301,491.5)" >
														<tspan x="0" y="0" class="t5">Engage
</tspan>
													</text>
												</g>
											</g>
										</g>
									</g>
									<g>
										<g>
											<g>
												<g>
													<g>
													</g>
													<text id="Warp" style="transform: matrix(1,0,0,1,301,515.5)" >
														<tspan x="0" y="0" class="t5">Warp
</tspan>
													</text>
												</g>
											</g>
										</g>
									</g>
								</g>
							</g>
						</g>
					</g>
				</g>
			</g>
			<g>
				<g>
					<path class="s8" d="m444.5 659.5h240v104.5h-240z"/>
				</g>
				<g>
					<g>
						<g>
							<g>
								<g>
									<g>
										<g>
											<g>
											</g>
											<text id="◎15 SOL" style="transform: matrix(1,0,0,1,509,736.5)" >
												<tspan x="0" y="0" class="t9">◎15 SOL
</tspan>
											</text>
										</g>
									</g>
								</g>
							</g>
						</g>
					</g>
				</g>
			</g>
			<g>
				<g>
					<g>
						<g>
							<g>
								<g>
									<g>
									</g>
									<text id="Alice’s wallet" style="transform: matrix(1,0,0,1,462,694.5)" >
										<tspan x="0" y="0" class="t5">Alice’s wallet
</tspan>
									</text>
								</g>
							</g>
						</g>
					</g>
				</g>
			</g>
			<g>
				<g>
					<g>
						<g id="sa544cf98-ea88-4901-b957-ebfb8bab399e">
							<g>
								<path class="s4" d="m479 731.3h-9c-5.4 0-9.8 4.3-9.8 9.7l0.1 1.5c0 0.3 0.2 0.6 0.5 0.7 0.2 0.1 4.9 1.6 13.7 1.6 8.8 0 13.5-1.5 13.7-1.6 0.3-0.1 0.6-0.4 0.6-0.7v-1.5c0-5.4-4.4-9.7-9.8-9.7z"/>
								<path class="s4" d="m474.5 728.3c4.6 0 8.3-5.3 8.3-9.8-0.1-4.5-3.8-8.2-8.3-8.2-4.5 0-8.3 3.7-8.3 8.2 0.1 4.5 3.7 9.8 8.3 9.8z"/>
							</g>
						</g>
					</g>
				</g>
			</g>
			<g>
				<g>
					<g>
						<g>
							<g>
								<g>
									<g>
										<g>
											<g>
											</g>
											<text id="ADDRESS" style="transform: matrix(1,0,0,1,301,390.5)" >
												<tspan x="0" y="0" class="t5">ADDRESS
</tspan>
											</text>
										</g>
									</g>
								</g>
							</g>
						</g>
					</g>
					<g>
						<g>
							<path class="s7" d="m281.5 396.5c-6.1 0-11-4.9-11-11 0-6.1 4.9-11 11-11 6.1 0 11 4.9 11 11 0 6.1-4.9 11-11 11z"/>
						</g>
					</g>
				</g>
			</g>
			<g>
				<g>
					<path fill-rule="evenodd" class="s10" d="m544 969v66c0 8.3-6.7 15-15 15h-75m90-278v169"/>
					<path class="s11" d="m457.1 1055.5l-7.1-5.5 7.1-5.5z"/>
					<text id="seed" style="transform: matrix(1,0,0,1,544,961)" >
						<tspan x="-21.5" y="0" class="t12">seed
</tspan>
					</text>
				</g>
			</g>
			<g>
				<g>
					<g>
						<g>
							<g>
								<g>
									<g>
									</g>
									<text id="ADDRESS" style="transform: matrix(1,0,0,1,473,640.5)" >
										<tspan x="0" y="0" class="t5">ADDRESS
</tspan>
									</text>
								</g>
							</g>
						</g>
					</g>
				</g>
			</g>
			<g>
				<g>
					<path class="s7" d="m453.5 646.5c-6.1 0-11-4.9-11-11 0-6.1 4.9-11 11-11 6.1 0 11 4.9 11 11 0 6.1-4.9 11-11 11z"/>
				</g>
			</g>
			<g>
				<g>
					<path class="s8" d="m1315 1139h240v104.5h-240z"/>
				</g>
				<g>
					<g>
						<g>
							<g>
								<g>
									<g>
										<g>
											<g>
											</g>
											<text id="◎27 SOL" style="transform: matrix(1,0,0,1,1380,1216.5)" >
												<tspan x="0" y="0" class="t9">◎27 SOL
</tspan>
											</text>
										</g>
									</g>
								</g>
							</g>
						</g>
					</g>
					<g>
						<g>
							<g>
								<g>
									<g>
										<g>
											<g>
											</g>
											<text id="Bob’s wallet" style="transform: matrix(1,0,0,1,1332,1173.5)" >
												<tspan x="0" y="0" class="t5">Bob’s wallet
</tspan>
											</text>
										</g>
									</g>
								</g>
							</g>
						</g>
					</g>
					<g>
						<g>
							<g>
								<g id="sc6e4fe9d-28ab-4ad9-9d26-bf07650fe61f">
									<g>
										<path class="s4" d="m1349.5 1210.8h-9c-5.4 0-9.8 4.3-9.8 9.7l0.1 1.5c0 0.3 0.2 0.6 0.5 0.7 0.2 0.1 4.9 1.6 13.7 1.6 8.8 0 13.5-1.5 13.7-1.6 0.3-0.1 0.6-0.4 0.6-0.7v-1.5c0-5.4-4.4-9.7-9.8-9.7z"/>
										<path class="s4" d="m1345 1207.8c4.6 0 8.3-5.3 8.3-9.8-0.1-4.5-3.8-8.2-8.3-8.2-4.5 0-8.3 3.7-8.3 8.2 0.1 4.5 3.7 9.8 8.3 9.8z"/>
									</g>
								</g>
							</g>
						</g>
					</g>
				</g>
			</g>
			<g>
				<g>
					<g>
						<g>
							<g>
								<g>
									<g>
										<g>
											<g>
											</g>
											<text id="ADDRESS" style="transform: matrix(1,0,0,1,1389,1122.5)" >
												<tspan x="0" y="0" class="t5">ADDRESS
</tspan>
											</text>
										</g>
									</g>
								</g>
							</g>
						</g>
					</g>
					<g>
						<g>
							<path class="s7" d="m1369.5 1128.5c-6.1 0-11-4.9-11-11 0-6.1 4.9-11 11-11 6.1 0 11 4.9 11 11 0 6.1-4.9 11-11 11z"/>
						</g>
					</g>
				</g>
			</g>
			<g>
				<g>
					<g>
						<g>
							<path class="s3" d="m1136 1491h290.5v125h-290.5z"/>
						</g>
						<g>
							<g>
								<g>
									<g>
										<g id="s2f306dc1-bc8f-4ea7-81cc-5824deef3606">
											<g>
												<path fill-rule="evenodd" class="s4" d="m1182.8 1535v24c0 2.1-1.7 3.8-3.8 3.8h-24c-2.1 0-3.7-1.7-3.7-3.8v-24c0-2.1 1.6-3.8 3.7-3.8h24c2.1 0 3.8 1.7 3.8 3.8zm-3 12c0-0.4-0.4-0.8-0.8-0.8l-5.2 0.1c-0.3-0.1-0.6 0.1-0.7 0.4l-3.1 6.1-6.8-13.6c-0.2-0.3-0.4-0.5-0.7-0.4-0.3 0-0.6 0.1-0.7 0.4l-2.8 7-4 0.1c-0.4 0-0.7 0.3-0.7 0.7 0 0.4 0.3 0.8 0.7 0.8h4.5c0.3 0 0.6-0.2 0.7-0.5l2.4-6 6.7 13.5q0.1 0.3 0.4 0.4c0.3 0.2 0.8 0 1-0.4l3.5-7h4.8c0.4 0 0.8-0.4 0.8-0.8z"/>
											</g>
										</g>
									</g>
								</g>
							</g>
							<g>
								<g>
									<g>
										<g>
											<g>
												<g>
													<g>
													</g>
													<text id="level: 3" style="transform: matrix(1,0,0,1,1210,1538.5)" >
														<tspan x="0" y="0" class="t5">level: 3
</tspan>
													</text>
												</g>
											</g>
										</g>
									</g>
									<g>
										<g>
											<g>
												<g>
													<g>
													</g>
													<text id="victories: 4" style="transform: matrix(1,0,0,1,1210,1562.5)" >
														<tspan x="0" y="0" class="t5">victories: 4
</tspan>
													</text>
												</g>
											</g>
										</g>
									</g>
									<g>
										<g>
											<g>
												<g>
													<g>
													</g>
													<text id="losses: 0" style="transform: matrix(1,0,0,1,1210,1586.5)" >
														<tspan x="0" y="0" class="t5">losses: 0
</tspan>
													</text>
												</g>
											</g>
										</g>
									</g>
								</g>
							</g>
						</g>
					</g>
					<g>
						<g>
							<g>
								<g>
									<g>
										<g>
											<g>
											</g>
											<text id="PROGRAM DERIVED ADDRESS" style="transform: matrix(1,0,0,1,1137,1482.5)" >
												<tspan x="0" y="0" class="t5">PROGRAM DERIVED ADDRESS
</tspan>
											</text>
										</g>
									</g>
								</g>
							</g>
						</g>
					</g>
				</g>
			</g>
			<g>
				<g>
					<path fill-rule="evenodd" class="s10" d="m1300 1191.3h-9.5c-5.2 0-9.5 4.2-9.5 9.5v61.2m0 28v82"/>
					<path class="s11" d="m1286.5 1368.9l-5.5 7.1-5.5-7.1z"/>
					<text id="seed" style="transform: matrix(1,0,0,1,1281,1282)" >
						<tspan x="-21.5" y="0" class="t12">seed
</tspan>
					</text>
				</g>
			</g>
			<g>
				<g>
					<g>
						<g>
							<g>
								<g>
									<g>
									</g>
									<text id="Bob’s player statistics" style="transform: matrix(1,0,0,1,1136,1649.5)" >
										<tspan x="0" y="0" class="t5">Bob’s player statistics
</tspan>
									</text>
								</g>
							</g>
						</g>
					</g>
				</g>
			</g>
			<g>
				<g>
					<g>
						<g>
							<g>
								<g>
									<g>
									</g>
									<text id="Alice’s player statistics" style="transform: matrix(1,0,0,1,160,1286.5)" >
										<tspan x="0" y="0" class="t5">Alice’s player statistics
</tspan>
									</text>
								</g>
							</g>
						</g>
					</g>
				</g>
			</g>
			<g>
				<g>
					<g>
						<g>
							<g>
								<g>
									<g>
									</g>
									<text id="Space battle program" style="transform: matrix(1,0,0,1,1344.82,120)" >
										<tspan x="0" y="0" class="t13">Space battle program
</tspan>
									</text>
								</g>
							</g>
						</g>
					</g>
				</g>
			</g>
			<g>
				<g>
					<path class="s0" d="m333.3 894.4h247.4c1.8 0 3.3 1.4 3.3 3.2v32.8c0 1.8-1.5 3.2-3.3 3.2h-247.4c-1.8 0-3.3-1.4-3.3-3.2v-32.8c0-1.8 1.5-3.2 3.3-3.2z"/>
					<path class="s14" d="m197.2 1030.5h245.6c1.7 0 3.2 1.5 3.2 3.3v32.4c0 1.8-1.5 3.3-3.2 3.3h-245.6c-1.7 0-3.2-1.5-3.2-3.3v-32.4c0-1.8 1.5-3.3 3.2-3.3z"/>
					<g>
						<g>
							<g>
								<g>
									<g>
										<g>
										</g>
										<text id="findProgramAddressSync()" style="transform: matrix(1,0,0,1,196.46,1056.5)" >
											<tspan x="0" y="0" class="t5">findProgramAddress</tspan><tspan  y="0" class="t5">S</tspan><tspan  y="0" class="t5">y</tspan><tspan  y="0" class="t5">n</tspan><tspan  y="0" class="t5">c</tspan><tspan  y="0" class="t5">()
</tspan>
										</text>
									</g>
								</g>
							</g>
						</g>
					</g>
				</g>
			</g>
			<g>
				<g>
					<path class="s0" d="m1168 1392h227c1.7 0 3 1.3 3 3v30c0 1.7-1.3 3-3 3h-227c-1.7 0-3-1.3-3-3v-30c0-1.7 1.3-3 3-3z"/>
					<path class="s14" d="m1168 1392h227c1.7 0 3 1.3 3 3v30c0 1.7-1.3 3-3 3h-227c-1.7 0-3-1.3-3-3v-30c0-1.7 1.3-3 3-3z"/>
					<g>
						<g>
							<g>
								<g>
									<g>
										<g>
										</g>
										<text id="findProgramAddress()" style="transform: matrix(1,0,0,1,1195.46,1416.5)" >
											<tspan x="0" y="0" class="t5">findProgramAddress()
</tspan>
										</text>
									</g>
								</g>
							</g>
						</g>
					</g>
				</g>
			</g>
			<g>
				<g>
					<path fill-rule="evenodd" class="s10" d="m354 572v113c0 8.3-6.7 15-15 15h-14c-8.3 0-15 6.7-15 15v57m0 28v228"/>
					<path class="s11" d="m315.5 1024.9l-5.5 7.1-5.5-7.1z"/>
					<text id="programId" style="transform: matrix(1,0,0,1,310,792)" >
						<tspan x="-46.8" y="0" class="t12">programId
</tspan>
					</text>
				</g>
			</g>
			<g>
				<g>
					<path class="s10" d="m300 1076v16"/>
					<path class="s11" d="m305.5 1088.9l-5.5 7.1-5.5-7.1z"/>
				</g>
			</g>
			<g>
				<g>
					<path fill-rule="evenodd" class="s10" d="m219 484h-144c-8.3 0-15 6.7-15 15v893m50 18h1027"/>
					<path class="s11" d="m1133.9 1404.5l7.1 5.5-7.1 5.5z"/>
					<text id="programId" style="transform: matrix(1,0,0,1,65,1412)" >
						<tspan x="-46.8" y="0" class="t12">programId
</tspan>
					</text>
				</g>
			</g>
			<g>
				<g>
					<path class="s10" d="m1266 1439v13"/>
					<path class="s11" d="m1271.5 1448.9l-5.5 7.1-5.5-7.1z"/>
				</g>
			</g>
		</g>
		<g>
		</g>
	</g>
</svg>