<svg xmlns="http://www.w3.org/2000/svg" xmlns:xlink="http://www.w3.org/1999/xlink" version="1.1" viewBox="264 -1320 1932 1404" width="1932px" height="1404px"><defs><style>@font-face{
    font-family:"DIN Next";
    font-weight: 400;
    src:url("https://whimsical.com/fonts/139e8e25-0eea-4cb4-a5d4-79048803e73d.eot?#iefix");
    src:url("https://whimsical.com/fonts/139e8e25-0eea-4cb4-a5d4-79048803e73d.eot?#iefix") format("eot"),url("https://whimsical.com/fonts/094b15e3-94bd-435b-a595-d40edfde661a.woff2") format("woff2"),url("https://whimsical.com/fonts/7e5fbe11-4858-4bd1-9ec6-a1d9f9d227aa.woff") format("woff"),url("https://whimsical.com/fonts/0f11eff9-9f05-46f5-9703-027c510065d7.ttf") format("truetype"),url("https://whimsical.com/fonts/48b61978-3f30-4274-823c-5cdcd1876918.svg#48b61978-3f30-4274-823c-5cdcd1876918") format("svg");
}
@font-face{
    font-family:"DIN Next";
    font-weight: 400;
    font-style: italic;
    src:url("https://whimsical.com/fonts/df24d5e8-5087-42fd-99b1-b16042d666c8.eot?#iefix");
    src:url("https://whimsical.com/fonts/df24d5e8-5087-42fd-99b1-b16042d666c8.eot?#iefix") format("eot"),url("https://whimsical.com/fonts/46251881-ffe9-4bfb-99c7-d6ce3bebaf3e.woff2") format("woff2"),url("https://whimsical.com/fonts/790ebbf2-62c5-4a32-946f-99d405f9243e.woff") format("woff"),url("https://whimsical.com/fonts/d28199e6-0f4a-42df-97f4-606701c6f75a.ttf") format("truetype"),url("https://whimsical.com/fonts/37a462c0-d86e-492c-b9ab-35e6bd417f6c.svg#37a462c0-d86e-492c-b9ab-35e6bd417f6c") format("svg");
}
@font-face{
    font-weight: 500;
    font-family:"DIN Next";
    src:url("https://whimsical.com/fonts/c5b058fc-55ce-4e06-a175-5c7d9a7e90f4.eot?#iefix");
    src:url("https://whimsical.com/fonts/c5b058fc-55ce-4e06-a175-5c7d9a7e90f4.eot?#iefix") format("eot"),url("https://whimsical.com/fonts/7b29ae40-30ff-4f99-a2b9-cde88669fa2f.woff2") format("woff2"),url("https://whimsical.com/fonts/bf73077c-e354-4562-a085-f4703eb1d653.woff") format("woff"),url("https://whimsical.com/fonts/0ffa6947-5317-4d07-b525-14d08a028821.ttf") format("truetype"),url("https://whimsical.com/fonts/9e423e45-5450-4991-a157-dbe6cf61eb4e.svg#9e423e45-5450-4991-a157-dbe6cf61eb4e") format("svg");
}
@font-face{
    font-family:"DIN Next";
    font-weight: 500;
    font-style: italic;
    src:url("https://whimsical.com/fonts/9897c008-fd65-48a4-afc7-36de2fea97b9.eot?#iefix");
    src:url("https://whimsical.com/fonts/9897c008-fd65-48a4-afc7-36de2fea97b9.eot?#iefix") format("eot"),url("https://whimsical.com/fonts/c7717981-647d-4b76-8817-33062e42d11f.woff2") format("woff2"),url("https://whimsical.com/fonts/b852cd4c-1255-40b1-a2be-73a9105b0155.woff") format("woff"),url("https://whimsical.com/fonts/821b00ad-e741-4e2d-af1a-85594367c8a2.ttf") format("truetype"),url("https://whimsical.com/fonts/d3e3b689-a6b0-45f2-b279-f5e194f87409.svg#d3e3b689-a6b0-45f2-b279-f5e194f87409") format("svg");
}
@font-face{
    font-weight: 700;
    font-family:"DIN Next";
    src:url("https://whimsical.com/fonts/81cd3b08-fd39-4ae3-8d05-9d24709eba84.eot?#iefix");
    src:url("https://whimsical.com/fonts/81cd3b08-fd39-4ae3-8d05-9d24709eba84.eot?#iefix") format("eot"),url("https://whimsical.com/fonts/31704504-4671-47a6-a61e-397f07410d91.woff2") format("woff2"),url("https://whimsical.com/fonts/b8a280da-481f-44a0-8d9c-1bc64bd7227c.woff") format("woff"),url("https://whimsical.com/fonts/276d122a-0fab-447b-9fc0-5d7fb0eafce2.ttf") format("truetype"),url("https://whimsical.com/fonts/8fb8273a-8213-4928-808b-b5bfaf3fd7e9.svg#8fb8273a-8213-4928-808b-b5bfaf3fd7e9") format("svg");
}
@font-face{
    font-family:"DIN Next";
    font-weight: 700;
    font-style: italic;
    src:url("https://whimsical.com/fonts/00cc6df3-ed32-4004-8dd8-1c576600a408.eot?#iefix");
    src:url("https://whimsical.com/fonts/00cc6df3-ed32-4004-8dd8-1c576600a408.eot?#iefix") format("eot"),url("https://whimsical.com/fonts/4132c4c8-680c-4d6d-9251-a2da38503bbd.woff2") format("woff2"),url("https://whimsical.com/fonts/366401fe-6df4-47be-8f55-8a411cff0dd2.woff") format("woff"),url("https://whimsical.com/fonts/dbe4f7ba-fc16-44a6-a577-571620e9edaf.ttf") format("truetype"),url("https://whimsical.com/fonts/f874edca-ee87-4ccf-8b1d-921fbc3c1c36.svg#f874edca-ee87-4ccf-8b1d-921fbc3c1c36") format("svg");
}

@font-face {
    font-family: 'PFDINMonoPro';
    src:url('https://whimsical.com/fonts/PFDINMonoPro-Regular.woff') format('woff');
    font-weight: 400;
}
@font-face {
    font-family: 'PFDINMonoPro';
    src:url('https://whimsical.com/fonts/PFDINMonoPro-Italic.woff') format('woff');
    font-style: italic;
    font-weight: 400;
}
@font-face {
    font-family: 'PFDINMonoPro';
    src:url('https://whimsical.com/fonts/PFDINMonoPro-Bold.woff') format('woff');
    font-weight: 700;
}
@font-face {
    font-family: 'PFDINMonoPro';
    src:url('https://whimsical.com/fonts/PFDINMonoPro-BoldItalic.woff') format('woff');
    font-style: italic;
    font-weight: 700;
}
* {-webkit-font-smoothing: auto; -moz-osx-font-smoothing: auto;}@media print { svg { width: 100%; height: 100%; } }</style><g><filter id="white-fill-shadow" y="-50%" height="200%"><feDropShadow dx="0" dy="2" stdDeviation="6" flood-opacity="0.03" flood-color="#000000"></feDropShadow></filter><filter id="light-gray-fill-shadow" y="-50%" height="200%"><feDropShadow dx="0" dy="2" stdDeviation="6" flood-opacity="0.09" flood-color="#000000"></feDropShadow></filter><filter id="yellow-fill-shadow" y="-50%" height="200%"><feDropShadow dx="0" dy="2" stdDeviation="6" flood-opacity="0.12" flood-color="#000000"></feDropShadow></filter><filter id="fill-shadow" y="-50%" height="200%"><feDropShadow dx="0" dy="2" stdDeviation="6" flood-opacity="0.16" flood-color="#000000"></feDropShadow></filter><filter id="frame-shadow" y="-50%" height="200%"><feDropShadow dx="0" dy="3" stdDeviation="8" flood-opacity="0.06" flood-color="#000000"></feDropShadow></filter><filter id="button-shadow" y="-50%" height="200%"><feDropShadow dx="0" dy="2" stdDeviation="6" flood-opacity="0.03" flood-color="#000000"></feDropShadow></filter><filter id="button-hover-shadow" y="-50%" height="200%"><feDropShadow dx="0" dy="2" stdDeviation="6" flood-opacity="0.08" flood-color="#000000"></feDropShadow></filter><filter id="badge-shadow" y="-50%" height="200%"><feDropShadow dx="0" dy="2" stdDeviation="6" flood-opacity="0.08" flood-color="#000000"></feDropShadow></filter></g></defs><g><rect x="264" y="-1320" width="1932" height="1404" fill="#FFFFFF" filter="url(#frame-shadow)"></rect><rect x="264" y="-1320" width="1932" height="1404" fill="#FFFFFF"></rect><svg x="264" y="-1320" width="1932" height="1404" viewBox="264 -1320 1932 1404"><g><g><path d="M390.95789,-1230.12508c147.9725,287.29276 296.06852,574.47882 564.04211,758.12508c268.02451,183.68115 655.97215,263.78313 1044.0206,343.79805" fill="none" stroke="#730FC3" stroke-linecap="round" stroke-linejoin="round" stroke-width="4"></path></g></g><g><g class="content"><g><g><g><g><g></g><text fill="#293845" hover-props="{}"><tspan x="1345" y="-335.5" font-family="DIN Next, system-ui, sans-serif" font-size="36" font-style="normal" font-weight="normal">Ed25519 curve</tspan></text></g></g></g></g></g></g><g><g class="content"><g><g><g><g><g></g><text fill="#293845" hover-props="{}"><tspan x="445" y="-1065.5" font-family="DIN Next, system-ui, sans-serif" font-size="18" font-style="normal" font-weight="normal">Alice’s wallet</tspan></text></g></g></g></g></g></g><g><g><g><g><g><g><g><g><g><g><rect width="246" height="160" x="520" y="-862" stroke="#730FC3" stroke-width="2" fill="#e3cff3"></rect></g></g><g><g class="content"><g><g><g><g><g></g><text fill="#293845" hover-props="{}"><tspan x="536" y="-832.5" font-family="DIN Next, system-ui, sans-serif" font-size="18" font-style="normal" font-weight="normal">SYSTEM PROGRAM</tspan></text></g></g></g></g></g></g></g></g><g><g><g transform="translate(536.6833333333334 -816.45) rotate(0 21.45 21.45)"><svg id="sdef6c546-51b2-4d14-bac0-9a5993538058" width="42.9" height="42.9" viewBox="0 0 12 12" data-icon-name="cogwheel" data-icon-partition="g12-1" data-icon-color="#730FC3"><style>#sdef6c546-51b2-4d14-bac0-9a5993538058 *[fill=&#x27;#444444&#x27;], #sdef6c546-51b2-4d14-bac0-9a5993538058 *[fill=&#x27;#444&#x27;] {fill:#730FC3;}#sdef6c546-51b2-4d14-bac0-9a5993538058 *[stroke=&#x27;#444444&#x27;], #sdef6c546-51b2-4d14-bac0-9a5993538058 *[stroke=&#x27;#444&#x27;] {stroke:#730FC3;}</style><g><path d="M11.555,5l-1.486-.165a4.223,4.223,0,0,0-.37-.893l.934-1.168a.5.5,0,0,0-.037-.666L9.889,1.4a.5.5,0,0,0-.666-.037L8.055,2.3a4.223,4.223,0,0,0-.893-.37L7,.445A.5.5,0,0,0,6.5,0h-1A.5.5,0,0,0,5,.445L4.838,1.931a4.223,4.223,0,0,0-.893.37L2.777,1.367a.5.5,0,0,0-.666.037L1.4,2.111a.5.5,0,0,0-.037.666L2.3,3.945a4.223,4.223,0,0,0-.37.893L.445,5A.5.5,0,0,0,0,5.5v1A.5.5,0,0,0,.445,7l1.486.165a4.223,4.223,0,0,0,.37.893L1.367,9.223a.5.5,0,0,0,.037.666l.707.707a.5.5,0,0,0,.666.037L3.945,9.7a4.223,4.223,0,0,0,.893.37L5,11.555A.5.5,0,0,0,5.5,12h1a.5.5,0,0,0,.5-.445l.165-1.486a4.223,4.223,0,0,0,.893-.37l1.168.934a.5.5,0,0,0,.666-.037l.707-.707a.5.5,0,0,0,.037-.666L9.7,8.055a4.223,4.223,0,0,0,.37-.893L11.555,7A.5.5,0,0,0,12,6.5v-1A.5.5,0,0,0,11.555,5ZM6,8A2,2,0,1,1,8,6,2,2,0,0,1,6,8Z" fill="#444"></path></g></svg></g></g></g><g><g class="content"><g><g><g><g><g></g><text fill="#293845" hover-props="{}"><tspan x="594" y="-798.5" font-family="DIN Next, system-ui, sans-serif" font-size="18" font-style="normal" font-weight="normal">transfer()</tspan></text></g></g></g></g></g></g></g></g></g></g><g><g><g><g class="content"><g><g><g><g><g></g><text fill="#293845" hover-props="{}"><tspan x="594" y="-875.5" font-family="DIN Next, system-ui, sans-serif" font-size="18" font-style="normal" font-weight="normal">ADDRESS</tspan></text></g></g></g></g></g></g><g><g><ellipse stroke="#730FC3" stroke-width="2" fill="#e3cff3" cx="574.5" cy="-880.5" rx="11" ry="11"></ellipse></g></g></g></g></g></g><g><g><rect width="240" height="104.5" x="1662" y="-180" stroke="#BD34D1" stroke-width="2" fill="#f2d6f6"></rect></g><g><g><g class="content"><g><g><g><g><g></g><text fill="#293845" hover-props="{}"><tspan x="1675" y="-102.5" font-family="DIN Next, system-ui, sans-serif" font-size="27" font-style="normal" font-weight="normal">◎27 SOL</tspan></text></g></g></g></g></g></g><g><g class="content"><g><g><g><g><g></g><text fill="#293845" hover-props="{}"><tspan x="1680" y="-149.5" font-family="DIN Next, system-ui, sans-serif" font-size="18" font-style="normal" font-weight="normal">Bob’s wallet</tspan></text></g></g></g></g></g></g></g></g><g><g><g><g class="content"><g><g><g><g><g></g><text fill="#293845" hover-props="{}"><tspan x="1693" y="-197.5" font-family="DIN Next, system-ui, sans-serif" font-size="18" font-style="normal" font-weight="normal">ADDRESS</tspan></text></g></g></g></g></g></g><g><g><ellipse stroke="#730FC3" stroke-width="2" fill="#e3cff3" cx="1673.5" cy="-202.5" rx="11" ry="11"></ellipse></g></g></g></g><g><g class="content"><g><g><g><g><g></g><text fill="#293845" hover-props="{}"><tspan x="951.7919921875" y="-1227" font-family="DIN Next, system-ui, sans-serif" font-size="60" font-style="normal" font-weight="normal">Alice sending 5 SOL to Bob</tspan></text></g></g></g></g></g></g><g><g><g><g><rect width="240" height="104.5" x="427.5" y="-1100.5" stroke="#BD34D1" stroke-width="2" fill="#f2d6f6"></rect></g><g><g><g class="content"><g><g><g><g><g></g><text fill="#293845" hover-props="{}"><tspan x="441" y="-1023.5" font-family="DIN Next, system-ui, sans-serif" font-size="27" font-style="normal" font-weight="normal">◎15 SOL</tspan></text></g></g></g></g></g></g></g></g><g><g class="content"><g><g><g><g><g></g><text fill="#293845" hover-props="{}"><tspan x="458" y="-1119.5" font-family="DIN Next, system-ui, sans-serif" font-size="18" font-style="normal" font-weight="normal">ADDRESS</tspan></text></g></g></g></g></g></g><g><g><ellipse stroke="#730FC3" stroke-width="2" fill="#e3cff3" cx="438.5" cy="-1124.5" rx="11" ry="11"></ellipse></g></g></g></g><g><g><g><g><g><g><g><g><g><g><rect width="246" height="160" x="709" y="-616" stroke="#730FC3" stroke-width="2" fill="#e3cff3"></rect></g></g><g><g class="content"><g><g><g><g><g></g><text fill="#293845" hover-props="{}"><tspan x="725" y="-586.5" font-family="DIN Next, system-ui, sans-serif" font-size="18" font-style="normal" font-weight="normal">MEMO PROGRAM</tspan></text></g></g></g></g></g></g></g></g><g><g><g transform="translate(725.6833333333334 -570.45) rotate(0 21.45 21.45)"><svg id="sb3e3cc68-5588-461c-8104-20c100348395" width="42.9" height="42.9" viewBox="0 0 12 12" data-icon-name="cogwheel" data-icon-partition="g12-1" data-icon-color="#730FC3"><style>#sb3e3cc68-5588-461c-8104-20c100348395 *[fill=&#x27;#444444&#x27;], #sb3e3cc68-5588-461c-8104-20c100348395 *[fill=&#x27;#444&#x27;] {fill:#730FC3;}#sb3e3cc68-5588-461c-8104-20c100348395 *[stroke=&#x27;#444444&#x27;], #sb3e3cc68-5588-461c-8104-20c100348395 *[stroke=&#x27;#444&#x27;] {stroke:#730FC3;}</style><g><path d="M11.555,5l-1.486-.165a4.223,4.223,0,0,0-.37-.893l.934-1.168a.5.5,0,0,0-.037-.666L9.889,1.4a.5.5,0,0,0-.666-.037L8.055,2.3a4.223,4.223,0,0,0-.893-.37L7,.445A.5.5,0,0,0,6.5,0h-1A.5.5,0,0,0,5,.445L4.838,1.931a4.223,4.223,0,0,0-.893.37L2.777,1.367a.5.5,0,0,0-.666.037L1.4,2.111a.5.5,0,0,0-.037.666L2.3,3.945a4.223,4.223,0,0,0-.37.893L.445,5A.5.5,0,0,0,0,5.5v1A.5.5,0,0,0,.445,7l1.486.165a4.223,4.223,0,0,0,.37.893L1.367,9.223a.5.5,0,0,0,.037.666l.707.707a.5.5,0,0,0,.666.037L3.945,9.7a4.223,4.223,0,0,0,.893.37L5,11.555A.5.5,0,0,0,5.5,12h1a.5.5,0,0,0,.5-.445l.165-1.486a4.223,4.223,0,0,0,.893-.37l1.168.934a.5.5,0,0,0,.666-.037l.707-.707a.5.5,0,0,0,.037-.666L9.7,8.055a4.223,4.223,0,0,0,.37-.893L11.555,7A.5.5,0,0,0,12,6.5v-1A.5.5,0,0,0,11.555,5ZM6,8A2,2,0,1,1,8,6,2,2,0,0,1,6,8Z" fill="#444"></path></g></svg></g></g></g><g><g class="content"><g><g><g><g><g></g><text fill="#293845" hover-props="{}"><tspan x="783" y="-552.5" font-family="DIN Next, system-ui, sans-serif" font-size="18" font-style="normal" font-weight="normal">memo()</tspan></text></g></g></g></g></g></g></g></g></g></g><g><g><g><g class="content"><g><g><g><g><g></g><text fill="#293845" hover-props="{}"><tspan x="783" y="-629.5" font-family="DIN Next, system-ui, sans-serif" font-size="18" font-style="normal" font-weight="normal">ADDRESS</tspan></text></g></g></g></g></g></g><g><g><ellipse stroke="#730FC3" stroke-width="2" fill="#e3cff3" cx="763.5" cy="-634.5" rx="11" ry="11"></ellipse></g></g></g></g></g></g><g><g><g><g><rect x="1461" y="-948" width="687" height="536" rx="3" ry="3" fill="#fae6d8"></rect><rect y="-948" rx="3" stroke="#E8833A" fill="none" stroke-linejoin="round" width="687" stroke-linecap="round" stroke-width="2" x="1461" ry="3" height="536"></rect></g><g><g><g class="content"><g><g><g><g><g></g><text fill="#293845" hover-props="{}"><tspan x="1743.307160408266" y="-902.5" font-family="DIN Next, system-ui, sans-serif" font-size="27" font-style="normal" font-weight="normal">Transaction</tspan></text></g></g></g></g></g></g><g><g><rect x="1494" y="-833" width="618.2580645161288" height="102.1526479750778" rx="3" ry="3" fill="#fdf3d3"></rect><rect y="-833" rx="3" stroke="#F7C325" fill="none" stroke-linejoin="round" width="618.2580645161288" stroke-linecap="round" stroke-width="2" x="1494" ry="3" height="102.1526479750778"></rect></g><g><g><g class="content"><g><g><g><g><g></g><text fill="#293845" hover-props="{}"><tspan x="1526.59814453125" y="-774.5" font-family="DIN Next, system-ui, sans-serif" font-size="18" font-style="normal" font-weight="normal">systemProgram.transfer(alice, bob, 5 * LAMPORTS_PER_SOL)</tspan></text></g></g></g></g></g></g></g></g><g><g><rect x="1494" y="-667" width="618" height="99.09034267912773" rx="3" ry="3" fill="#fdf3d3"></rect><rect y="-667" rx="3" stroke="#F7C325" fill="none" stroke-linejoin="round" width="618" stroke-linecap="round" stroke-width="2" x="1494" ry="3" height="99.09034267912773"></rect></g><g><g><g class="content"><g><g><g><g><g></g><text fill="#293845" hover-props="{}"><tspan x="1523" y="-611.5" font-family="DIN Next, system-ui, sans-serif" font-size="18" font-style="normal" font-weight="normal">memoProgram().memo(‘thanks Bob’)</tspan></text></g></g></g></g></g></g></g></g><g><g class="content"><g><g><g><g><g></g><text fill="#293845" hover-props="{}"><tspan x="1494" y="-843.5" font-family="DIN Next, system-ui, sans-serif" font-size="18" font-style="normal" font-weight="normal">Instruction 0</tspan></text></g></g></g></g></g></g><g><g class="content"><g><g><g><g><g></g><text fill="#293845" hover-props="{}"><tspan x="1494" y="-683.5" font-family="DIN Next, system-ui, sans-serif" font-size="18" font-style="normal" font-weight="normal">Instruction 1</tspan></text></g></g></g></g></g></g><g><g class="content"><g><g><g><g id="12/VyLZ/-1"><g><g></g><text fill="#293845" hover-props="{}"><tspan x="1495" y="-519.5" font-family="DIN Next, system-ui, sans-serif" font-size="27" font-style="italic" font-weight="normal">Signed by: Alice</tspan></text></g></g></g></g></g></g></g><g><g class="content"><g><g><g><g id="12/VyLZ/-1"><g><g></g><text fill="#293845" hover-props="{}"><tspan x="1495" y="-463.5" font-family="DIN Next, system-ui, sans-serif" font-size="27" font-style="italic" font-weight="normal">Recent block hash: DDNj36dW6R2WdjMi... </tspan></text></g></g></g></g></g></g></g></g></g></g></g><g><g><g><g><g transform="translate(1932 -108) rotate(0 51.5 51.5)"><svg id="s6e9013bb-185e-4a24-883e-62d5ccabe311" width="103" height="103" viewBox="0 0 64 64" data-icon-name="single-02" data-icon-partition="g64-8" data-icon-color="#BD34D1"><style>#s6e9013bb-185e-4a24-883e-62d5ccabe311 *[fill=&#x27;#444444&#x27;], #s6e9013bb-185e-4a24-883e-62d5ccabe311 *[fill=&#x27;#444&#x27;] {fill:#BD34D1;}#s6e9013bb-185e-4a24-883e-62d5ccabe311 *[stroke=&#x27;#444444&#x27;], #s6e9013bb-185e-4a24-883e-62d5ccabe311 *[stroke=&#x27;#444&#x27;] {stroke:#BD34D1;}</style><g><path d="M38,37H26A19.021,19.021,0,0,0,7,56a1,1,0,0,0,.594.914C7.97,57.081,16.961,61,32,61s24.03-3.919,24.406-4.086A1,1,0,0,0,57,56,19.021,19.021,0,0,0,38,37Z" fill="#444"></path><path data-color="color-2" d="M32,32c8.013,0,14-8.412,14-15.933a14,14,0,1,0-28,0C18,23.588,23.987,32,32,32Z" fill="#444"></path></g></svg></g></g></g><g><g class="content"><g><g><g><g><g></g><text fill="#293845" hover-props="{}"><tspan x="1955" y="39.5" font-family="DIN Next, system-ui, sans-serif" font-size="27" font-style="normal" font-weight="normal">Bob</tspan></text></g></g></g></g></g></g></g></g><g><g><path d="M579,-693v566c0,8.28426 6.71574,15 15,15h189.5M874.5,-112h775.5" fill="none" stroke="#4B5C6B" stroke-linecap="round" stroke-linejoin="round" stroke-width="4"></path><polygon points="1646.9079,-117.54095 1654,-112 1646.9079,-106.45905" fill="#4B5C6B" stroke="#4B5C6B" stroke-width="2" stroke-linecap="round" stroke-linejoin="round"></polygon><g class="content"><g><g><g><g><g></g><text fill="#207868" hover-props="{}"><tspan x="787.529296875" y="-102.5" font-family="DIN Next, system-ui, sans-serif" font-size="27" font-style="normal" font-weight="normal">+5 SOL</tspan></text></g></g></g></g></g></g></g><g><g><path d="M511,-782h-38c-8.28426,0 -15,-6.71574 -15,-15v-44M458,-881v-103" fill="none" stroke="#788896" stroke-linecap="round" stroke-linejoin="round" stroke-width="4"></path><polygon points="452.45905,-980.9079 458,-988 463.54095,-980.9079" fill="#788896" stroke="#788896" stroke-width="2" stroke-linecap="round" stroke-linejoin="round"></polygon><g class="content"><g><g><g><g><g></g><text fill="#D3455B" hover-props="{}"><tspan x="418.71630859375" y="-851.5" font-family="DIN Next, system-ui, sans-serif" font-size="27" font-style="normal" font-weight="normal">-5 SOL</tspan></text></g></g></g></g></g></g></g><g><g><g><g><g transform="translate(296 -1187) rotate(0 51.5 51.5)"><svg id="saa0ebe3b-a1f6-4d56-9e17-d728908deac0" width="103" height="103" viewBox="0 0 64 64" data-icon-name="single-02" data-icon-partition="g64-8" data-icon-color="#BD34D1"><style>#saa0ebe3b-a1f6-4d56-9e17-d728908deac0 *[fill=&#x27;#444444&#x27;], #saa0ebe3b-a1f6-4d56-9e17-d728908deac0 *[fill=&#x27;#444&#x27;] {fill:#BD34D1;}#saa0ebe3b-a1f6-4d56-9e17-d728908deac0 *[stroke=&#x27;#444444&#x27;], #saa0ebe3b-a1f6-4d56-9e17-d728908deac0 *[stroke=&#x27;#444&#x27;] {stroke:#BD34D1;}</style><g><path d="M38,37H26A19.021,19.021,0,0,0,7,56a1,1,0,0,0,.594.914C7.97,57.081,16.961,61,32,61s24.03-3.919,24.406-4.086A1,1,0,0,0,57,56,19.021,19.021,0,0,0,38,37Z" fill="#444"></path><path data-color="color-2" d="M32,32c8.013,0,14-8.412,14-15.933a14,14,0,1,0-28,0C18,23.588,23.987,32,32,32Z" fill="#444"></path></g></svg></g></g></g><g><g class="content"><g><g><g><g><g></g><text fill="#293845" hover-props="{}"><tspan x="319" y="-1039.5" font-family="DIN Next, system-ui, sans-serif" font-size="27" font-style="normal" font-weight="normal">Alice</tspan></text></g></g></g></g></g></g></g></g><g><g><path d="M1814.87416,-960l0,-201c0,-8.28426 -6.71574,-15 -15,-15h-498.87416M1135,-1176h-727" fill="none" stroke="#788896" stroke-linecap="round" stroke-linejoin="round" stroke-width="4"></path><polygon points="1820.41511,-963.0921 1814.87416,-956 1809.33321,-963.0921" fill="#788896" stroke="#788896" stroke-width="2" stroke-linecap="round" stroke-linejoin="round"></polygon><g class="content"><g><g><g><g><g></g><text fill="#293845" hover-props="{}"><tspan x="1139.3984375" y="-1169.5" font-family="DIN Next, system-ui, sans-serif" font-size="18" font-style="normal" font-weight="normal">makes a transaction</tspan></text></g></g></g></g></g></g></g><g><g class="content"><g><g><g><g><g></g><text fill="#293845" hover-props="{}"><tspan x="449" y="-1065.5" font-family="DIN Next, system-ui, sans-serif" font-size="18" font-style="normal" font-weight="normal">Alice’s wallet</tspan></text></g></g></g></g></g></g><g><g><path d="M1485,-771.59858h-276.79929c-2.87227,0 -5.20071,-2.32844 -5.20071,-5.20071v0c0,-2.87227 -2.32844,-5.20071 -5.20071,-5.20071h-419.79929" fill="none" stroke="#788896" stroke-linecap="round" stroke-linejoin="round" stroke-width="4"></path><polygon points="781.0921,-776.45905 774,-782 781.0921,-787.54095" fill="#788896" stroke="#788896" stroke-width="2" stroke-linecap="round" stroke-linejoin="round"></polygon></g></g><g><g><path d="M1485,-609h-258c-8.28426,0 -15,6.71574 -15,15v35c0,8.28426 -6.71574,15 -15,15h-230" fill="none" stroke="#788896" stroke-linecap="round" stroke-linejoin="round" stroke-width="4"></path><polygon points="970.0921,-538.45905 963,-544 970.0921,-549.54095" fill="#788896" stroke="#788896" stroke-width="2" stroke-linecap="round" stroke-linejoin="round"></polygon></g></g><g><path d="M2078.52209,-178.25904z" fill="none" stroke="#2C88D9" stroke-linecap="round" stroke-linejoin="round" stroke-width="4"></path></g></svg><g></g></g></svg>