<svg xmlns="http://www.w3.org/2000/svg" width="744" height="304">
  <style>
    line, path, circle, rect, polygon{stroke:black;stroke-width:2;stroke-opacity:1;fill-opacity:1;stroke-linecap:round;stroke-linejoin:miter;}text{font-family:Iosevka Fixed, monospace;font-size:14px;}rect.backdrop{stroke:none;fill:white;}.broken{stroke-dasharray:8;}.filled{fill:black;}.bg_filled{fill:white;}.nofill{fill:white;}.end_marked_arrow{marker-end:url(#arrow);}.start_marked_arrow{marker-start:url(#arrow);}.end_marked_diamond{marker-end:url(#diamond);}.start_marked_diamond{marker-start:url(#diamond);}.end_marked_circle{marker-end:url(#circle);}.start_marked_circle{marker-start:url(#circle);}.end_marked_open_circle{marker-end:url(#open_circle);}.start_marked_open_circle{marker-start:url(#open_circle);}.end_marked_big_open_circle{marker-end:url(#big_open_circle);}.start_marked_big_open_circle{marker-start:url(#big_open_circle);}
    <!--separator-->
    
  </style>
  <defs>
    <marker id="arrow" viewBox="-2 -2 8 8" refX="4" refY="2" markerWidth="7" markerHeight="7" orient="auto-start-reverse">
      <polygon points="0,0 0,4 4,2 0,0"></polygon>
    </marker>
    <marker id="diamond" viewBox="-2 -2 8 8" refX="4" refY="2" markerWidth="7" markerHeight="7" orient="auto-start-reverse">
      <polygon points="0,2 2,0 4,2 2,4 0,2"></polygon>
    </marker>
    <marker id="circle" viewBox="0 0 8 8" refX="4" refY="4" markerWidth="7" markerHeight="7" orient="auto-start-reverse">
      <circle cx="4" cy="4" r="2" class="filled"></circle>
    </marker>
    <marker id="open_circle" viewBox="0 0 8 8" refX="4" refY="4" markerWidth="7" markerHeight="7" orient="auto-start-reverse">
      <circle cx="4" cy="4" r="2" class="bg_filled"></circle>
    </marker>
    <marker id="big_open_circle" viewBox="0 0 8 8" refX="4" refY="4" markerWidth="7" markerHeight="7" orient="auto-start-reverse">
      <circle cx="4" cy="4" r="3" class="bg_filled"></circle>
    </marker>
  </defs>
  <rect class="backdrop" x="0" y="0" width="744" height="304"></rect>
  <rect x="4" y="216" width="168" height="64" class="solid nofill" rx="0"></rect>
  <text x="34" y="252" >Neighborhood</text>
  <text x="138" y="252" >3</text>
  <rect x="188" y="216" width="168" height="64" class="solid nofill" rx="0"></rect>
  <text x="218" y="252" >Neighborhood</text>
  <text x="322" y="252" >4</text>
  <rect x="380" y="216" width="168" height="64" class="solid nofill" rx="0"></rect>
  <text x="410" y="252" >Neighborhood</text>
  <text x="514" y="252" >5</text>
  <rect x="564" y="216" width="168" height="64" class="solid nofill" rx="0"></rect>
  <text x="594" y="252" >Neighborhood</text>
  <text x="698" y="252" >6</text>
  <text x="306" y="44" >Neighborhood</text>
  <text x="410" y="44" >0</text>
  <text x="154" y="140" >Neighborhood</text>
  <text x="258" y="140" >1</text>
  <text x="474" y="140" >Neighborhood</text>
  <text x="578" y="140" >2</text>
  <g>
    <line x1="276" y1="8" x2="444" y2="8" class="solid"></line>
    <line x1="276" y1="8" x2="276" y2="72" class="solid"></line>
    <line x1="444" y1="8" x2="444" y2="72" class="solid"></line>
    <line x1="204" y1="40" x2="276" y2="40" class="solid"></line>
    <line x1="204" y1="40" x2="204" y2="84" class="solid"></line>
    <line x1="444" y1="40" x2="532" y2="40" class="solid"></line>
    <line x1="532" y1="40" x2="532" y2="84" class="solid"></line>
    <line x1="276" y1="72" x2="444" y2="72" class="solid"></line>
    <polygon points="200,84 208,84 204,96" class="filled"></polygon>
    <polygon points="528,84 536,84 532,96" class="filled"></polygon>
  </g>
  <g>
    <line x1="124" y1="104" x2="292" y2="104" class="solid"></line>
    <line x1="124" y1="104" x2="124" y2="168" class="solid"></line>
    <line x1="292" y1="104" x2="292" y2="168" class="solid"></line>
    <line x1="124" y1="168" x2="292" y2="168" class="solid"></line>
    <line x1="156" y1="168" x2="156" y2="196" class="solid"></line>
    <line x1="204" y1="168" x2="204" y2="196" class="solid"></line>
    <polygon points="152,196 160,196 156,208" class="filled"></polygon>
    <polygon points="200,196 208,196 204,208" class="filled"></polygon>
  </g>
  <g>
    <line x1="444" y1="104" x2="612" y2="104" class="solid"></line>
    <line x1="444" y1="104" x2="444" y2="168" class="solid"></line>
    <line x1="612" y1="104" x2="612" y2="168" class="solid"></line>
    <line x1="444" y1="168" x2="612" y2="168" class="solid"></line>
    <line x1="532" y1="168" x2="532" y2="196" class="solid"></line>
    <line x1="580" y1="168" x2="580" y2="196" class="solid"></line>
    <polygon points="528,196 536,196 532,208" class="filled"></polygon>
    <polygon points="576,196 584,196 580,208" class="filled"></polygon>
  </g>
</svg>