<svg width="262" height="40" viewBox="0 0 262 40" fill="none" xmlns="http://www.w3.org/2000/svg">
<g clip-path="url(#clip0_426_2717)">
<path d="M37.5657 8.15867V0.241028H7.53529C5.45069 0.241028 3.45147 1.06913 1.97743 2.54317C0.503398 4.0172 -0.324707 6.01643 -0.324707 8.10103V16.134C-0.324707 18.2186 0.503398 20.2178 1.97743 21.6918C3.45147 23.1658 5.45069 23.994 7.53529 23.994H31.3406V31.9064H0.241213V39.824H31.3983C33.4829 39.824 35.4821 38.9959 36.9561 37.5219C38.4302 36.0478 39.2583 34.0486 39.2583 31.964V23.9363C39.2583 21.8517 38.4302 19.8525 36.9561 18.3785C35.4821 16.9044 33.4829 16.0763 31.3983 16.0763H7.59293V8.15867H37.5657Z" fill="white"/>
<path d="M45.7451 8.10109V31.9641C45.7451 34.0487 46.5732 36.0479 48.0473 37.5219C49.5213 38.9959 51.5205 39.8241 53.6051 39.8241H77.4681C79.5527 39.8241 81.5519 38.9959 83.0259 37.5219C84.5 36.0479 85.3281 34.0487 85.3281 31.9641V8.10109C85.3281 6.01649 84.5 4.01727 83.0259 2.54323C81.5519 1.06919 79.5527 0.241089 77.4681 0.241089H53.6051C51.5205 0.241089 49.5213 1.06919 48.0473 2.54323C46.5732 4.01727 45.7451 6.01649 45.7451 8.10109ZM77.4104 31.9064H53.647V8.15873H77.3947L77.4104 31.9064Z" fill="white"/>
<path d="M129.952 8.10109V39.8241H137.87V26.8184H161.062V39.8241H168.974V8.10109C168.974 6.01649 168.146 4.01727 166.672 2.54323C165.198 1.06919 163.199 0.241089 161.114 0.241089H137.812C135.728 0.241089 133.728 1.06919 132.254 2.54323C130.78 4.01727 129.952 6.01649 129.952 8.10109ZM161.062 18.9007H137.875V8.15873H161.067L161.062 18.9007Z" fill="white"/>
<path d="M222.658 8.10109V39.8241H230.56V26.8184H253.747V39.8241H261.665V8.10109C261.665 6.01649 260.837 4.01727 259.363 2.54323C257.889 1.06919 255.889 0.241089 253.805 0.241089H230.518C228.434 0.241089 226.434 1.06919 224.96 2.54323C223.486 4.01727 222.658 6.01649 222.658 8.10109ZM253.758 18.9007H230.56V8.15873H253.747L253.758 18.9007Z" fill="white"/>
<path d="M207.703 0.241089V31.9064H204.559L193.178 3.53705C192.789 2.56471 192.119 1.73104 191.252 1.14356C190.385 0.55609 189.362 0.241752 188.315 0.241089H181.267C179.878 0.241089 178.545 0.793159 177.562 1.77585C176.579 2.75854 176.027 4.09135 176.027 5.48109V39.8241H183.924V8.15873H187.094L198.444 36.5333C198.834 37.5055 199.506 38.3387 200.373 38.9252C201.241 39.5118 202.265 39.8249 203.312 39.8241H210.36C211.75 39.8241 213.082 39.272 214.065 38.2893C215.048 37.3066 215.6 35.9738 215.6 34.5841V0.241089H207.703Z" fill="white"/>
<path d="M100.283 31.9064V0.241089H92.376V31.9641C92.376 34.0487 93.2041 36.0479 94.6781 37.5219C96.1522 38.9959 98.1514 39.8241 100.236 39.8241H124.041V31.9064H100.283Z" fill="white"/>
</g>
<defs>
<clipPath id="clip0_426_2717">
<rect width="262" height="39.824" fill="white"/>
</clipPath>
</defs>
</svg>
